<svg height='300px' width='300px'  fill="#444444" xmlns="http://www.w3.org/2000/svg" data-name="Layer 1" viewBox="0 0 100 100" x="0px" y="0px"><title>wing_25Icon2</title><path d="M73.88,64.85a19,19,0,0,0,10.28-2.47c-4.1,15.28-12.35,15.56-23.53,15.95-8.39.29-17.73.61-27.15,7.37a33.93,33.93,0,0,1-13.64,5.7l-1,.19C25.9,78.33,40,73,53.65,67.88c3.05-1.15,5.93-2.24,8.75-3.41l3.75.15C68.67,64.73,71.28,64.85,73.88,64.85Z"></path><path d="M85.54,36.25C84.72,47.64,77.15,56,61.9,62.43l-.09,0h0c-2.85,1.2-5.78,2.3-8.89,3.47-13,4.9-27.69,10.43-35.31,23.59-.25-.62-.48-1.27-.7-1.88v0a10.36,10.36,0,0,1,0-6.82c4.69-13.53,17.2-21.1,30.4-29.08,4.94-3,10-6.08,14.86-9.56C70.47,41.46,79,40.69,85.54,36.25Z"></path><path d="M61.21,40.3c-4.82,3.5-10,6.61-15,9.63C32.79,58.07,20,65.8,15.05,79.84a51.49,51.49,0,0,1-.68-7.38c0-25.42,20.94-34.31,41.18-42.9C66.33,25,76.64,20.61,82.74,13.86,77.86,26.87,68.87,34.75,61.21,40.3Z"></path></svg>
